<svg width="249" height="249" viewBox="0 0 249 249" fill="none" xmlns="http://www.w3.org/2000/svg">
<path d="M84.9553 44.5978C85.5159 41.9518 88.4863 40.6133 90.8398 41.9463L107.03 51.1162C108.762 52.0969 110.951 51.6555 112.167 50.0804L123.54 35.3532C125.193 33.2125 128.45 33.2954 129.992 35.5174L140.6 50.804C141.735 52.439 143.899 52.9912 145.678 52.0998L162.314 43.7653C164.732 42.5538 167.631 44.0416 168.056 46.7127L170.981 65.0882C171.294 67.0536 173.004 68.49 174.994 68.4589L193.599 68.1678C196.303 68.1255 198.269 70.7236 197.493 73.3147L192.156 91.1397C191.585 93.0462 192.502 95.0823 194.309 95.9177L211.197 103.728C213.652 104.863 214.296 108.057 212.473 110.055L199.93 123.799C198.589 125.269 198.532 127.501 199.797 129.037L211.624 143.402C213.343 145.49 212.538 148.647 210.028 149.656L192.764 156.596C190.918 157.339 189.898 159.326 190.371 161.259L194.795 179.332C195.438 181.959 193.342 184.454 190.644 184.274L172.078 183.037C170.092 182.905 168.311 184.252 167.899 186.199L164.043 204.402C163.482 207.048 160.512 208.387 158.158 207.054L141.968 197.884C140.236 196.903 138.047 197.344 136.831 198.92L125.458 213.647C123.805 215.788 120.548 215.705 119.006 213.483L108.398 198.196C107.263 196.561 105.099 196.009 103.32 196.9L86.684 205.235C84.2658 206.446 81.3673 204.958 80.9421 202.287L78.0169 183.912C77.704 181.946 75.9939 180.51 74.004 180.541L55.3994 180.832C52.695 180.874 50.7291 178.276 51.505 175.685L56.8423 157.86C57.4131 155.954 56.4956 153.918 54.6893 153.082L37.8008 145.272C35.3459 144.137 34.7019 140.943 36.5252 138.945L49.0679 125.201C50.4094 123.731 50.4662 121.499 49.2012 119.962L37.3739 105.598C35.6546 103.51 36.4602 100.353 38.9697 99.3444L56.2336 92.4036C58.0801 91.6612 59.0999 89.6744 58.6268 87.7413L54.2031 69.6679C53.5601 67.0408 55.6556 64.546 58.3544 64.7258L76.9201 65.9629C78.9058 66.0952 80.6867 64.7476 81.0992 62.8007L84.9553 44.5978Z" fill="#EDA38A"/>
<path d="M81.1372 150.455L80.3048 150.83C80.0223 150.905 78.8438 151.33 78.5612 151.405C77.7967 151.697 76.8811 152.004 76.1705 150.427C76.0126 150.076 75.3544 148.265 75.1767 147.871C75.078 147.651 74.4377 146.464 74.3587 146.289C74.1613 145.851 74.3736 145.386 75.1622 145.031C75.2498 144.992 75.4447 144.957 76.0735 144.831C76.6584 144.726 77.1403 144.509 77.4031 144.39C77.6221 144.292 78.5026 143.789 78.7457 143.627C79.3634 143.243 80.0599 143.035 80.5548 142.496C80.8022 142.226 80.9664 141.889 81.1941 141.575C81.8136 140.611 82.2252 140.004 82.0489 137.975C81.9564 137.068 81.8577 136.849 81.5376 136.256C80.8261 137.367 79.7204 138.656 78.0557 139.406C77.1795 139.801 76.7698 139.827 75.692 139.891C74.5067 139.951 74.0533 139.997 72.8218 139.603C71.0381 139.037 69.0528 138.14 66.5458 132.576C64.5718 128.195 64.8688 126.164 65.1243 124.626C65.788 119.9 69.7307 118.123 71.8334 117.176C72.7534 116.761 73.4981 116.426 76.0395 116.335C77.7856 116.233 80.8377 116.808 83.2382 119.679C84.2641 120.903 86.0272 124.114 87.0734 126.436C88.6526 129.94 89.0103 131.202 89.6536 133.916C90.0841 136.041 90.7779 139.101 89.2438 142.481C88.0621 145.121 87.5672 145.66 86.4898 146.778C84.6943 148.641 84.2037 149.073 81.1372 150.455ZM73.975 123.8C73.4055 124.057 72.6787 125.017 73.2381 126.609C73.2579 126.653 74.37 129.472 74.449 129.647C75.0609 131.005 76.0936 132.595 77.8021 131.825C78.8973 131.332 78.8814 130.127 78.5939 129.255C78.4249 128.646 78.0499 127.814 77.4182 126.412C77.1616 125.843 76.905 125.273 76.4731 124.782C75.309 123.252 74.1503 123.721 73.975 123.8ZM94.4269 137.141C93.9729 136.133 94.4086 135.463 94.5005 135.316C94.7763 134.875 95.1706 134.698 96.3293 134.228C96.7871 134.075 99.0016 133.024 99.4835 132.807C100.316 132.432 101.282 132.471 101.756 133.522C101.953 133.96 102.877 136.127 103.094 136.609C103.192 136.828 103.631 137.684 103.73 137.903C104.282 139.13 104.097 140.004 103.348 140.447C103.017 140.649 101.308 141.418 100.87 141.616C100.388 141.833 99.0742 142.425 98.6164 142.579C97.4379 143.004 96.7759 142.354 96.4996 141.741C96.4206 141.566 96.0696 140.67 95.9907 140.494C95.8525 140.188 95.1135 138.782 95.0191 138.455L94.4269 137.141ZM112.153 136.479L111.321 136.854C111.038 136.929 109.86 137.354 109.577 137.429C108.813 137.721 107.897 138.028 107.187 136.451C107.029 136.1 106.37 134.289 106.193 133.895C106.094 133.676 105.454 132.488 105.375 132.313C105.177 131.875 105.39 131.411 106.178 131.055C106.266 131.016 106.461 130.981 107.09 130.855C107.674 130.75 108.156 130.533 108.419 130.414C108.638 130.316 109.519 129.814 109.762 129.651C110.379 129.268 111.076 129.059 111.571 128.52C111.818 128.25 111.982 127.913 112.21 127.599C112.83 126.635 113.241 126.028 113.065 123.999C112.973 123.092 112.874 122.873 112.554 122.28C111.842 123.391 110.736 124.68 109.072 125.43C108.196 125.825 107.786 125.851 106.708 125.915C105.523 125.975 105.069 126.021 103.838 125.627C102.054 125.061 100.069 124.164 97.5619 118.6C95.5879 114.219 95.8849 112.188 96.1404 110.65C96.8041 105.924 100.747 104.148 102.85 103.2C103.769 102.785 104.514 102.45 107.056 102.359C108.802 102.257 111.854 102.832 114.254 105.703C115.28 106.927 117.043 110.138 118.089 112.46C119.669 115.964 120.026 117.226 120.67 119.94C121.1 122.065 121.794 125.126 120.26 128.505C119.078 131.145 118.583 131.684 117.506 132.802C115.71 134.665 115.22 135.097 112.153 136.479ZM104.991 109.824C104.422 110.081 103.695 111.041 104.254 112.633C104.274 112.677 105.386 115.496 105.465 115.671C106.077 117.029 107.11 118.619 108.818 117.85C109.913 117.356 109.897 116.151 109.61 115.279C109.441 114.67 109.066 113.838 108.434 112.436C108.178 111.867 107.921 111.297 107.489 110.807C106.325 109.276 105.166 109.745 104.991 109.824ZM122.251 112.166C121.639 110.807 119.783 105.636 119.533 104.378C119.467 103.881 118.694 99.5917 120.892 96.2824C122.262 94.2946 124.958 93.0269 125.309 92.869C126.798 92.1978 129.366 91.4626 131.555 92.11C133.573 92.729 136.242 93.7399 140.301 101.345C140.921 102.488 141.099 102.882 142.718 106.474C143.251 107.657 143.499 108.441 143.975 109.966C144.868 112.884 145.498 114.866 145.28 117.072C144.811 121.763 141.464 123.693 139.186 124.719C136.952 125.726 135.007 125.97 132.917 125.542C131.486 125.291 129.877 124.645 127.953 122.245C126.784 120.822 125.234 118.2 124.795 117.343C124.293 116.463 123.922 115.523 123.464 114.623C123.045 113.81 122.626 112.998 122.251 112.166ZM135.721 111.999L134.161 108.538C133.905 107.969 132.729 105.125 132.453 104.512C130.854 100.964 129.703 100.165 128.564 100.678C128.257 100.816 127.903 101.081 127.785 101.872C127.59 102.961 128.126 104.617 128.757 106.019C128.994 106.545 129.275 107.051 129.512 107.576C129.63 107.839 130.076 109.062 130.194 109.324C130.293 109.543 130.751 110.444 130.85 110.663C130.929 110.838 131.106 111.232 131.24 111.646C131.433 112.192 131.966 113.374 132.223 113.944C133.032 115.74 134.014 116.984 134.606 117.244C135.217 117.549 135.568 117.391 135.918 117.233C136.313 117.055 136.536 116.849 136.689 116.253C136.883 115.164 136.309 113.42 135.721 111.999Z" fill="black"/>
<path d="M145.143 102.159C144.077 99.7934 143.619 97.8394 143.269 96.3629C142.69 93.6728 142.583 90.9803 143.688 88.6377C144.061 87.943 145.764 85.1729 145.899 85.0063C147.612 82.3079 153.639 80.2013 155.347 79.4315C155.785 79.2341 157.1 78.6419 157.549 78.703C158.427 78.7814 158.743 79.4823 158.881 79.789C158.98 80.008 159.055 80.2906 159.153 80.5097C159.366 81.0989 159.623 81.6684 159.879 82.2379C160.097 82.7198 161.226 85.1095 161.483 85.6789C161.937 86.6865 161.409 87.504 160.708 87.8198C160.489 87.9185 160.25 87.9734 160.055 88.0086C159.729 88.1029 159.427 88.1338 159.164 88.2522C158.813 88.4101 154.459 88.6841 152.747 92.2503C152.231 93.3263 152.326 94.7064 152.58 95.8565C152.899 97.0307 153.577 98.886 153.912 99.6307C154.248 100.375 155.555 103.159 157.643 104.168C158.937 105.614 165.117 102.962 165.905 102.606C166.08 102.527 166.79 101.997 167.009 101.898C167.097 101.859 167.272 101.78 167.614 101.836C168.405 101.954 168.602 102.392 168.878 103.006C169.017 103.312 169.6 104.841 169.758 105.192C170.094 105.936 170.41 106.637 170.789 107.362C170.907 107.625 171.07 107.868 171.188 108.131C171.741 109.358 171.404 110.247 170.309 110.741C169.783 110.978 169.281 111.151 168.736 111.344C166.789 112.169 164.259 113.771 161.925 114.255C161.491 114.345 161.018 114.348 160.584 114.438C159.307 114.644 159.156 114.66 158.277 114.581C156.437 114.357 155.278 113.772 153.908 113.072C152.602 112.395 152.455 112.303 151.725 111.736C148.858 109.234 148.617 108.815 147.001 105.696C146.578 104.991 146.198 104.266 145.839 103.585C145.578 103.123 145.36 102.641 145.143 102.159Z" fill="black"/>
<g clip-path="url(#clip0_0_168)">
<path d="M146.727 101.902L144.592 102.864C143.939 103.158 140.805 104.695 140.064 105.029C139.585 105.244 137.241 106.207 136.718 106.443C136.196 106.678 133.672 107.94 133.105 108.195C132.583 108.431 131.891 108.525 131.611 107.903C131.541 107.748 131.29 106.957 131.208 106.776C131.091 106.517 130.4 105.333 130.284 105.074L130.213 104.918C130.143 104.763 129.84 104.089 130.74 103.528C130.903 103.424 133.168 102.403 133.56 102.226C133.952 102.049 135.904 101.263 136.34 101.067L139.521 99.6339C140.174 99.3395 143.276 97.8483 143.973 97.5342L149.419 95.0803C150.072 94.7858 153.375 93.3911 154.116 93.0574L157.078 91.7224C157.383 91.585 158.829 90.8398 159.134 90.7024C159.919 90.349 160.396 90.4769 160.585 90.5475C160.785 90.644 160.844 90.7735 161.065 91.2656C161.171 91.4987 161.629 92.632 161.745 92.891C161.886 93.2018 162.026 93.5126 162.209 93.8038C162.233 93.8556 162.416 94.1467 162.451 94.2244C162.731 94.846 161.337 95.4742 161.119 95.5724C160.771 95.7294 159.08 96.3977 158.688 96.5744C157.631 97.0197 157.151 97.2356 152.664 99.2577C152.185 99.4736 149.931 100.52 149.408 100.756C149.06 100.913 147.163 101.705 146.727 101.902Z" fill="black"/>
<path d="M149.196 107.378L147.061 108.34C146.408 108.634 143.274 110.171 142.533 110.504C142.054 110.72 139.71 111.683 139.187 111.919C138.664 112.154 136.141 113.416 135.574 113.671C135.051 113.907 134.36 114.001 134.08 113.379C134.01 113.224 133.758 112.433 133.677 112.252C133.56 111.993 132.869 110.809 132.752 110.55L132.682 110.394C132.612 110.239 132.309 109.565 133.209 109.004C133.372 108.9 135.637 107.879 136.029 107.702C136.421 107.525 138.373 106.739 138.809 106.543L141.989 105.11C142.643 104.815 145.745 103.324 146.442 103.01L151.888 100.556C152.541 100.262 155.844 98.8671 156.584 98.5333L159.547 97.1984C159.852 97.061 161.298 96.3158 161.603 96.1784C162.387 95.825 162.864 95.9528 163.053 96.0234C163.254 96.1199 163.312 96.2494 163.534 96.7415C163.639 96.9746 164.098 98.108 164.214 98.367C164.354 98.6778 164.494 98.9886 164.678 99.2797C164.701 99.3315 164.885 99.6227 164.92 99.7004C165.2 100.322 163.806 100.95 163.588 101.048C163.239 101.205 161.549 101.874 161.157 102.05C160.099 102.496 159.62 102.712 155.133 104.734C154.654 104.95 152.4 105.996 151.877 106.232C151.528 106.389 149.632 107.181 149.196 107.378Z" fill="black"/>
</g>
<path opacity="0.7" d="M104.918 167.3L99.3719 154.992L100.701 154.393L101.341 155.815L101.505 155.741C101.536 155.541 101.586 155.279 101.656 154.958C101.729 154.631 101.891 154.296 102.143 153.953C102.397 153.605 102.816 153.3 103.399 153.037C104.153 152.697 104.902 152.586 105.647 152.704C106.391 152.822 107.081 153.154 107.715 153.7C108.349 154.247 108.878 154.99 109.302 155.93C109.729 156.878 109.938 157.772 109.929 158.613C109.918 159.45 109.713 160.187 109.313 160.825C108.912 161.46 108.338 161.945 107.592 162.281C107.017 162.54 106.514 162.652 106.082 162.618C105.649 162.579 105.284 162.48 104.987 162.319C104.689 162.154 104.452 162.013 104.278 161.896L104.161 161.948L106.293 166.68L104.918 167.3ZM102.741 158.858C103.045 159.534 103.413 160.086 103.844 160.513C104.273 160.937 104.744 161.209 105.256 161.329C105.766 161.444 106.297 161.378 106.849 161.13C107.424 160.87 107.836 160.503 108.084 160.026C108.334 159.544 108.44 159.001 108.401 158.397C108.365 157.787 108.203 157.164 107.916 156.526C107.632 155.897 107.279 155.374 106.858 154.956C106.438 154.533 105.967 154.261 105.446 154.141C104.926 154.015 104.375 154.083 103.792 154.346C103.233 154.598 102.827 154.952 102.574 155.407C102.319 155.858 102.208 156.38 102.242 156.973C102.273 157.562 102.44 158.19 102.741 158.858ZM116.135 158.46C115.567 158.715 115.004 158.841 114.446 158.835C113.885 158.826 113.377 158.679 112.922 158.393C112.464 158.104 112.104 157.668 111.841 157.085C111.61 156.572 111.524 156.111 111.582 155.701C111.639 155.288 111.795 154.914 112.051 154.579C112.307 154.244 112.618 153.94 112.986 153.667C113.356 153.388 113.736 153.128 114.128 152.886C114.64 152.571 115.057 152.32 115.38 152.132C115.704 151.94 115.924 151.763 116.039 151.604C116.158 151.443 116.168 151.252 116.068 151.03L116.047 150.984C115.788 150.409 115.429 150.033 114.971 149.856C114.516 149.677 113.973 149.731 113.339 150.016C112.683 150.312 112.233 150.688 111.989 151.143C111.746 151.599 111.622 152.024 111.617 152.419L110.102 152.541C110.09 151.892 110.21 151.328 110.462 150.85C110.716 150.366 111.047 149.96 111.455 149.631C111.865 149.297 112.296 149.028 112.747 148.825C113.034 148.695 113.38 148.582 113.784 148.483C114.191 148.38 114.617 148.354 115.061 148.406C115.509 148.457 115.945 148.641 116.369 148.96C116.793 149.278 117.165 149.793 117.485 150.504L120.143 156.401L118.767 157.021L118.221 155.809L118.151 155.84C118.146 156.077 118.084 156.355 117.966 156.674C117.848 156.994 117.644 157.312 117.352 157.631C117.061 157.949 116.655 158.225 116.135 158.46ZM115.788 157.13C116.332 156.885 116.742 156.571 117.019 156.19C117.299 155.806 117.458 155.402 117.496 154.979C117.538 154.553 117.475 154.154 117.307 153.781L116.74 152.522C116.713 152.618 116.614 152.74 116.442 152.888C116.272 153.03 116.069 153.18 115.832 153.338C115.597 153.491 115.366 153.637 115.139 153.776C114.914 153.91 114.732 154.02 114.593 154.106C114.257 154.314 113.957 154.54 113.694 154.785C113.432 155.025 113.253 155.29 113.155 155.582C113.06 155.868 113.091 156.186 113.248 156.535C113.463 157.013 113.803 157.295 114.267 157.38C114.733 157.46 115.24 157.377 115.788 157.13ZM122.653 155.27L118.619 146.319L119.948 145.72L120.557 147.072L120.651 147.03C120.614 146.514 120.748 146.021 121.051 145.553C121.354 145.084 121.773 144.729 122.31 144.488C122.411 144.442 122.538 144.387 122.691 144.323C122.844 144.259 122.961 144.213 123.043 144.185L123.673 145.584C123.621 145.593 123.506 145.624 123.329 145.676C123.153 145.722 122.974 145.787 122.792 145.869C122.357 146.065 122.009 146.331 121.75 146.668C121.492 146.999 121.336 147.369 121.281 147.776C121.229 148.179 121.294 148.582 121.476 148.986L124.028 154.65L122.653 155.27ZM133.375 150.439L129.341 141.488L130.67 140.889L131.3 142.288L131.417 142.235C131.388 141.673 131.522 141.166 131.818 140.715C132.113 140.26 132.552 139.901 133.135 139.638C133.725 139.372 134.277 139.284 134.79 139.376C135.306 139.461 135.782 139.693 136.219 140.071L136.312 140.029C136.333 139.464 136.511 138.942 136.847 138.463C137.181 137.981 137.669 137.595 138.31 137.306C139.11 136.945 139.878 136.901 140.613 137.173C141.346 137.441 141.949 138.101 142.424 139.154L145.123 145.145L143.748 145.765L141.048 139.774C140.751 139.113 140.357 138.723 139.868 138.602C139.379 138.481 138.89 138.531 138.4 138.752C137.771 139.035 137.369 139.445 137.195 139.982C137.019 140.515 137.061 141.07 137.322 141.649L139.948 147.477L138.55 148.107L135.787 141.976C135.558 141.467 135.208 141.132 134.738 140.97C134.266 140.804 133.769 140.838 133.249 141.073C132.891 141.234 132.6 141.48 132.375 141.81C132.154 142.139 132.024 142.515 131.986 142.939C131.95 143.357 132.031 143.786 132.229 144.225L134.75 149.819L133.375 150.439ZM151.358 142.56C150.55 142.924 149.755 143.051 148.971 142.941C148.192 142.83 147.476 142.505 146.822 141.968C146.172 141.429 145.639 140.697 145.223 139.772C144.802 138.839 144.605 137.949 144.629 137.102C144.658 136.252 144.888 135.499 145.321 134.841C145.758 134.181 146.38 133.67 147.188 133.305C147.997 132.941 148.79 132.815 149.57 132.926C150.353 133.036 151.07 133.363 151.722 133.906C152.377 134.447 152.915 135.184 153.335 136.117C153.751 137.041 153.945 137.926 153.914 138.772C153.888 139.616 153.656 140.368 153.22 141.027C152.787 141.685 152.167 142.196 151.358 142.56ZM150.802 141.324C151.416 141.048 151.85 140.663 152.104 140.17C152.359 139.676 152.466 139.13 152.425 138.532C152.384 137.933 152.229 137.335 151.959 136.736C151.69 136.138 151.343 135.623 150.92 135.192C150.497 134.761 150.015 134.476 149.476 134.336C148.936 134.196 148.359 134.264 147.745 134.541C147.131 134.817 146.698 135.204 146.445 135.701C146.193 136.199 146.087 136.748 146.13 137.351C146.172 137.953 146.328 138.554 146.598 139.152C146.868 139.751 147.213 140.263 147.635 140.69C148.056 141.117 148.536 141.399 149.074 141.535C149.612 141.671 150.188 141.601 150.802 141.324ZM157.43 139.6L153.396 130.648L154.772 130.029L158.805 138.98L157.43 139.6ZM153.424 128.841C153.155 128.962 152.883 128.975 152.607 128.88C152.334 128.783 152.14 128.606 152.024 128.35C151.909 128.094 151.905 127.831 152.013 127.563C152.125 127.293 152.315 127.097 152.583 126.976C152.851 126.856 153.122 126.844 153.394 126.94C153.671 127.035 153.867 127.211 153.982 127.468C154.098 127.724 154.1 127.987 153.988 128.257C153.88 128.526 153.692 128.72 153.424 128.841ZM164.535 128.041L163.457 128.947C163.286 128.777 163.082 128.628 162.843 128.502C162.606 128.371 162.33 128.298 162.016 128.286C161.702 128.273 161.344 128.357 160.944 128.537C160.397 128.784 159.997 129.116 159.745 129.533C159.496 129.945 159.458 130.343 159.632 130.727C159.786 131.069 160.032 131.283 160.37 131.369C160.707 131.455 161.17 131.445 161.758 131.339L163.234 131.067C164.122 130.901 164.852 130.929 165.425 131.152C165.996 131.372 166.422 131.794 166.704 132.42C166.935 132.933 166.994 133.458 166.881 133.995C166.772 134.53 166.507 135.033 166.088 135.502C165.668 135.972 165.111 136.363 164.416 136.676C163.502 137.088 162.658 137.23 161.881 137.103C161.104 136.977 160.464 136.568 159.962 135.879L161.12 134.964C161.461 135.39 161.859 135.645 162.314 135.73C162.772 135.814 163.283 135.728 163.846 135.475C164.487 135.186 164.935 134.82 165.189 134.379C165.445 133.931 165.487 133.515 165.314 133.131C165.174 132.82 164.948 132.609 164.635 132.497C164.322 132.381 163.916 132.372 163.418 132.471L161.768 132.793C160.861 132.968 160.123 132.939 159.555 132.704C158.988 132.464 158.566 132.035 158.288 131.417C158.06 130.912 158.001 130.401 158.109 129.885C158.222 129.367 158.475 128.886 158.868 128.442C159.266 127.997 159.779 127.632 160.409 127.348C161.294 126.949 162.077 126.83 162.758 126.991C163.442 127.15 164.034 127.5 164.535 128.041Z" fill="black"/>
<defs>
<clipPath id="clip0_0_168">
<rect width="27.7786" height="13.5139" fill="white" transform="translate(143.528 96.0883) rotate(-24.2564)"/>
</clipPath>
</defs>
</svg>
