<?xml version="1.0" encoding="UTF-8"?>
<svg id="Layer_1" xmlns="http://www.w3.org/2000/svg" viewBox="0 0 184.95 28.78">
  <path d="M13.29,28.76c-2.66,0-5.32-.04-7.98.01-2.15.04-2.08-1.15-1.9-2.76.37-3.28.61-6.59.73-9.89.02-.47-.83-1.1-1.41-1.44C.64,13.45-.32,11.69.09,9.32c.4-2.28,1.95-3.43,4.12-4.12,1.05-.34,2.19-1.07,2.81-1.95,3.05-4.34,9.45-4.33,12.46.02.61.88,1.76,1.6,2.81,1.94,2.16.71,3.7,1.82,4.04,4.16.34,2.37-.5,4.17-2.68,5.33-.49.26-1.28.67-1.28,1.01.06,3.31-.12,6.69.54,9.9.46,2.25.48,3.1-1.89,3.15-2.57.05-5.15.01-7.73,0ZM18.19,18.65c0-1.55.18-3.13-.08-4.64-.13-.74-1.09-1.35-1.67-2.01-.56.69-1.56,1.35-1.6,2.06-.18,3.17-.18,6.37,0,9.54.04.7,1.07,1.34,1.65,2.01.57-.69,1.5-1.32,1.62-2.07.25-1.59.08-3.25.07-4.88ZM8.39,18.76s0,0,.01,0c0,1.71-.15,3.44.08,5.12.09.64,1.06,1.16,1.62,1.73.52-.55,1.46-1.08,1.48-1.64.14-3.42.16-6.84,0-10.26-.03-.59-1.07-1.14-1.65-1.71-.52.62-1.39,1.2-1.48,1.87-.22,1.6-.07,3.25-.07,4.88Z"/>
  <path d="M133.78,20.32c1.67-4.01,3.15-7.3,4.41-10.66.71-1.88,1.87-2.45,3.79-2.27,2.06.19,1.69,1.77,1.82,2.94.48,4.56.86,9.14,1.26,13.71.1,1.18.23,2.32-1.58,2.39-1.58.06-2.52-.34-2.64-2.08-.19-2.76-.5-5.51-1.32-8.43-1.12,2.65-2.24,5.31-3.36,7.96-.47,1.11-.78,2.71-2.4,2.19-.96-.31-1.89-1.37-2.36-2.33-1.23-2.53-2.21-5.19-3.29-7.79-.2.04-.41.08-.61.13-.26,2.67-.61,5.33-.73,8.01-.09,2.01-1.1,2.51-2.89,2.33-2.07-.21-1.4-1.61-1.3-2.76.4-4.49.78-8.98,1.25-13.46.12-1.11-.23-2.61,1.68-2.77,1.8-.15,3.14.11,3.86,2.12,1.23,3.44,2.75,6.77,4.4,10.79Z"/>
  <path d="M120.21,16.83c.03,5.66-4.27,9.86-10.11,9.88-5.85.03-10.24-4.14-10.26-9.74-.02-5.71,4.2-9.81,10.11-9.84,5.94-.03,10.22,4.02,10.25,9.7ZM115.95,16.91c.02-3.4-2.5-6.09-5.76-6.18-3.33-.09-6.04,2.67-6.04,6.16,0,3.4,2.53,6.13,5.77,6.21,3.34.08,6.02-2.66,6.04-6.19Z"/>
  <path d="M46.05,19.79c1.58,2.03,3.08,3.97,4.79,6.18-2.82.73-4.71.75-6.13-1.54-1.06-1.7-2.46-3.18-3.71-4.76-.26.06-.51.12-.77.18,0,1.57-.05,3.14.01,4.71.06,1.61-.87,1.9-2.22,1.88-1.26-.02-2.06-.34-2.05-1.8.04-5.16-.04-10.32.1-15.47.02-.59,1.11-1.6,1.77-1.66,2.3-.21,4.63-.13,6.95-.07,3.47.1,5.53,1.83,6.1,4.99.58,3.23-.67,5.47-3.8,6.84-.29.13-.57.29-1.05.54ZM40.3,13.67c-.3,1.9-.01,3.17,2.46,3,2.68-.19,4.08-1.03,3.97-2.97-.14-2.37-1.81-2.71-3.82-2.85-2.27-.16-3.03.74-2.61,2.82Z"/>
  <path d="M166.26,7.89c5.39-1.96,6.19,2.84,8.85,4.94,2.83-1.72,3.54-7.11,9.06-4.89-1.64,2.17-3.07,4.31-4.75,6.22-1.38,1.56-1.51,2.72-.06,4.37,1.97,2.24,3.61,4.75,5.6,7.42-2.9.8-4.84.72-6.27-1.65-.92-1.53-2.17-2.86-3.29-4.31-3.34,1.85-3.66,7.92-9.82,5.96.92-1.34,1.69-2.51,2.49-3.65,1.41-2,3.91-3.96,3.96-5.99.05-1.87-2.53-3.8-3.92-5.71-.6-.82-1.15-1.69-1.85-2.72Z"/>
  <path d="M57.9,15.35c1.85,0,3.6-.16,5.3.07.72.1,1.32,1.01,1.97,1.56-.65.55-1.22,1.38-1.97,1.59-1,.28-2.14.14-3.22.06-1.61-.11-2.41.32-2.43,2.15-.02,1.93.95,2.14,2.47,2.07,1.49-.07,3.02-.19,4.47.08.7.13,1.24,1.09,1.85,1.68-.59.6-1.15,1.68-1.78,1.71-3.15.18-6.31.17-9.46,0-.6-.03-1.62-1.13-1.64-1.75-.13-5.08-.05-10.17-.09-15.26-.01-1.38.56-1.92,1.92-1.9,3.07.04,6.15-.08,9.21.09.64.04,1.22,1.06,1.83,1.63-.61.58-1.14,1.46-1.86,1.67-.99.29-2.14.09-3.22.09-3.99,0-4.02.04-3.35,4.46Z"/>
  <path d="M156.08,6.59c1.16,1.1,2.28,1.71,2.67,2.62,2.11,4.99,4.08,10.04,5.99,15.11.2.54-.29,1.34-.46,2.01-1.18-.33-2.49-.46-3.5-1.06-.79-.47-1.15-2.13-1.83-2.21-2.11-.26-4.3-.1-6.43.09-.37.03-.54,1.16-1,1.55-.79.67-1.67,1.43-2.62,1.65-1.5.33-2.19-.44-1.58-2,1.99-5.13,3.92-10.28,6.03-15.36.35-.84,1.5-1.34,2.75-2.4ZM153.16,19.31h5.66c-.94-2.5-1.74-4.65-2.55-6.8-.2.01-.4.02-.6.03-.8,2.15-1.6,4.31-2.51,6.77Z"/>
  <path d="M76.04,6.62c1.7.88,3.49,1.61,5.03,2.7.53.38.42,1.64.6,2.5-1.05-.01-2.14.15-3.14-.08-.98-.23-1.87-1.21-2.8-1.21-.78,0-1.97.78-2.23,1.48-.19.53.63,1.78,1.31,2.18,1.34.79,2.91,1.17,4.36,1.79,2.77,1.19,4.1,3.24,3.82,5.72-.29,2.48-2.06,4.25-4.98,4.76-3.05.53-6.06.45-8.29-2.05-.62-.7-1.11-2.47-.72-2.88.92-.98,2.1-.8,3.44.23,1.2.92,3.09,1.1,4.71,1.28.49.05,1.46-.96,1.55-1.57.09-.6-.5-1.59-1.09-1.93-1.2-.7-2.57-1.11-3.89-1.6-3.39-1.26-5.16-3.55-4.69-6.11.53-2.87,3.08-4.64,7-5.19Z"/>
  <path d="M89.88,18.66c0-1.06.03-2.13,0-3.19-.05-1.38.32-3.09-.38-4.03-.52-.7-2.49-.22-3.68-.64-.69-.24-1.4-1.16-1.54-1.88-.07-.38,1.05-1.41,1.65-1.43,4.06-.13,8.12-.13,12.18,0,.6.02,1.73,1.08,1.65,1.44-.17.73-.89,1.63-1.59,1.87-1.2.41-3.26-.08-3.7.6-.7,1.08-.42,2.81-.44,4.27-.05,2.87-.07,5.73,0,8.6.04,1.58-.58,2.2-2.2,2.17-1.55-.03-2.02-.72-1.97-2.13.07-1.88.02-3.77.02-5.65Z"/>
</svg>